<svg xmlns="http://www.w3.org/2000/svg" width="800" height="600" viewBox="0 0 800 600" role="img" aria-label="Sanayi tesisi görsel yer tutucu">
  <rect width="800" height="600" fill="#2C3137"/>
  <g stroke="rgba(255,255,255,0.07)" stroke-width="1">
    <path d="M0 50H800M0 100H800M0 150H800M0 200H800M0 250H800M0 300H800M0 350H800M0 400H800M0 450H800M0 500H800M0 550H800"/>
    <path d="M50 0V600M100 0V600M150 0V600M200 0V600M250 0V600M300 0V600M350 0V600M400 0V600M450 0V600M500 0V600M550 0V600M600 0V600M650 0V600M700 0V600M750 0V600"/>
  </g>
  <g fill="none" stroke="#E2231A" stroke-width="3" opacity="0.9">
    <path d="M120 420V250l120-70 120 70v170"/>
    <path d="M360 420V250l120-70 120 70v170"/>
    <path d="M120 250l120-70 120 70M360 250l120-70 120 70"/>
    <rect x="170" y="330" width="60" height="90"/>
    <rect x="410" y="330" width="60" height="90"/>
  </g>
  <text x="400" y="500" font-family="Archivo, sans-serif" font-size="26" font-weight="800" fill="rgba(255,255,255,0.55)" text-anchor="middle">GÖKSEL EMLAK OTOMOTİV</text>
  <text x="400" y="532" font-family="sans-serif" font-size="15" fill="rgba(255,255,255,0.35)" text-anchor="middle">Görsel yakında eklenecek</text>
</svg>
